<svg width="210" height="32" viewBox="0 0 210 32" fill="none" xmlns="http://www.w3.org/2000/svg">
<g id="logo.svg" clip-path="url(#clip0_3_471)">
<path id="&#208;&#187;&#208;&#190;&#208;&#179;&#208;&#190;" fill-rule="evenodd" clip-rule="evenodd" d="M191.483 8.68713L197.757 18.8203L204.027 8.68713L204.237 8.34613H209.25V23.7004H205.428V13.5665L199.091 23.3742L198.88 23.7004H196.632L196.421 23.3742L190.107 13.5975V23.7004H186.264V8.34613H191.27L191.483 8.68713ZM174.876 23.7004H174.855C173.421 23.7004 172.198 23.6521 171.186 23.5555C170.866 23.5266 170.546 23.4891 170.228 23.4431C169.703 23.3724 169.184 23.2583 168.678 23.1021H168.669C168.485 23.0425 168.304 22.9723 168.127 22.8921C167.957 22.8154 167.793 22.7279 167.635 22.6302C166.827 22.1368 166.235 21.356 165.979 20.4447V20.4346C165.939 20.299 165.906 20.161 165.879 20.0215C165.848 19.8665 165.823 19.7045 165.801 19.5464C165.666 18.3192 165.608 17.0849 165.628 15.8505C165.628 14.7195 165.653 13.7753 165.705 13.0178C165.73 12.4245 165.815 11.8353 165.96 11.2594V11.2539C166.015 11.0751 166.082 10.9001 166.16 10.73C166.235 10.5626 166.321 10.4004 166.418 10.2449C166.947 9.43403 167.75 8.84024 168.68 8.57165C169.505 8.32711 170.354 8.17123 171.212 8.10666C172.246 8.00642 173.468 7.95631 174.88 7.95631C176.316 7.95631 177.54 8.00435 178.553 8.10045C179.404 8.16293 180.247 8.31648 181.066 8.55848C181.248 8.61808 181.427 8.68821 181.602 8.7685C181.772 8.84565 181.937 8.93393 182.096 9.03278C182.906 9.53242 183.501 10.3161 183.763 11.2307C183.917 11.8182 184.009 12.4199 184.038 13.0264C184.094 13.7848 184.122 14.7231 184.122 15.8412C184.122 16.9592 184.096 17.897 184.045 18.6544C184.02 19.2486 183.933 19.8386 183.787 20.4152C183.609 21.0482 183.271 21.6249 182.806 22.09C182.322 22.5567 181.734 22.902 181.091 23.0975H181.083C180.896 23.1574 180.697 23.2117 180.485 23.2602C180.273 23.3088 180.046 23.3532 179.804 23.3935C178.171 23.6222 176.523 23.7233 174.875 23.6958L174.876 23.7004ZM174.876 20.0525C176.06 20.0673 177.245 20.0155 178.424 19.8975C178.889 19.8849 179.347 19.777 179.77 19.5805C179.965 19.2934 180.08 18.9591 180.101 18.6126C180.237 17.6968 180.296 16.7714 180.278 15.8458C180.295 14.9151 180.236 13.9845 180.101 13.0636C180.079 12.7164 179.968 12.3808 179.777 12.0902C179.354 11.8976 178.896 11.7922 178.431 11.7802C177.249 11.662 176.062 11.6102 174.874 11.6252C173.686 11.61 172.497 11.6617 171.315 11.7802C170.851 11.7921 170.394 11.8992 169.973 12.0948C169.954 12.1136 169.938 12.1347 169.925 12.1576C169.883 12.2315 169.847 12.3093 169.82 12.3901C169.531 13.5187 169.414 14.6846 169.474 15.8481C169.456 16.7711 169.516 17.694 169.651 18.6071C169.673 18.9552 169.788 19.291 169.984 19.5798C170.017 19.604 170.054 19.6236 170.092 19.6379C170.202 19.6816 170.315 19.7171 170.43 19.7441C171.897 20.0034 173.386 20.1073 174.874 20.0541L174.876 20.0525ZM150.524 15.845C150.524 18.0445 150.685 19.2896 151.009 19.5805C151.039 19.6046 151.072 19.6245 151.107 19.6394C151.2 19.681 151.296 19.7152 151.394 19.7417C152.656 19.9991 153.945 20.1032 155.232 20.0517C156.465 20.0517 157.437 20.0262 158.142 19.9742C158.537 19.9661 158.93 19.9115 159.313 19.8115C159.344 19.792 159.374 19.7694 159.401 19.7441C159.442 19.7062 159.478 19.6638 159.509 19.6177C159.81 19.0187 159.939 18.348 159.881 17.6802V16.9657H163.725V17.6872C163.751 18.729 163.621 19.7688 163.337 20.7717C163.292 20.9159 163.244 21.0492 163.194 21.1693C162.965 21.7961 162.541 22.3336 161.986 22.7038H161.981C161.798 22.8169 161.605 22.9131 161.404 22.9913C161.18 23.0794 160.952 23.1539 160.719 23.2145C158.916 23.5928 157.074 23.7546 155.232 23.6966C153.796 23.7201 152.361 23.6117 150.945 23.3726C149.982 23.2449 149.069 22.8653 148.299 22.2721C147.639 21.5973 147.2 20.7377 147.041 19.8076C146.771 18.5032 146.649 17.1728 146.676 15.8412C146.649 14.5055 146.771 13.1711 147.038 11.8623C147.195 10.9294 147.629 10.0652 148.283 9.3823C149.051 8.7822 149.966 8.39873 150.933 8.27173C152.353 8.03128 153.792 7.92283 155.232 7.94778H155.247C156.642 7.93041 158.037 8.00549 159.422 8.17253C159.631 8.20198 159.81 8.22833 159.946 8.25003C160.666 8.34725 161.361 8.57802 161.996 8.93048L162.012 8.939C162.332 9.14742 162.605 9.41909 162.815 9.73725C163.044 10.0844 163.221 10.4626 163.342 10.8602C163.626 11.8684 163.756 12.9133 163.73 13.9602V14.6756H159.886V13.9726C159.886 12.7652 159.745 12.0909 159.465 11.9499C159.051 11.8085 158.618 11.7301 158.181 11.7174C157.464 11.6528 156.482 11.6208 155.236 11.6213C152.756 11.6213 151.346 11.7763 151.006 12.0863C150.822 12.3829 150.715 12.7211 150.696 13.0698C150.567 13.9906 150.511 14.9201 150.527 15.8497L150.524 15.845ZM130.713 8.34613H144.758V11.9941H133.842V14.1013H144.382V17.7492H133.842V20.051H144.756V23.6989H130V8.3469H130.711L130.713 8.34613ZM114.809 8.34613H117.92V20.0486H128.283V23.6911H114.101V8.34613H114.812H114.809ZM98.0042 8.34613H112.049V11.9941H101.132V14.1013H111.672V17.7492H101.137V20.051H112.049V23.6989H97.2935V8.3469L98.0042 8.34613ZM80.2931 8.34613H95.5226V11.9941H89.4831V23.6966H85.6375V11.9941H79.5809V8.34613H80.29M46.9332 18.6536C46.9189 18.9533 46.9645 19.2529 47.0673 19.5348C47.1072 19.6409 47.1862 19.7277 47.2882 19.7774C47.7174 19.8976 48.16 19.9635 48.6057 19.9735C49.3373 20.0251 50.3257 20.051 51.5708 20.051H51.6026C52.8225 20.051 53.8119 20.0231 54.5709 19.9673C54.6824 19.9595 54.7941 19.9502 54.9057 19.9409C55.2347 19.9247 55.5605 19.8684 55.8759 19.7735C55.9735 19.7216 56.0482 19.6351 56.0852 19.5309C56.1882 19.2477 56.234 18.9469 56.22 18.6459V8.14851H60.0625V18.6606C60.0854 19.5153 59.9809 20.3686 59.7525 21.1925C59.7114 21.3204 59.675 21.4289 59.6355 21.518C59.4479 22.0294 59.0906 22.4611 58.6233 22.741C57.8016 23.1616 56.9036 23.4128 55.9829 23.4796C54.5178 23.6422 53.0441 23.7152 51.57 23.6981H51.5491C50.1003 23.7133 48.6516 23.6525 47.2091 23.516C46.8666 23.4798 46.5256 23.431 46.1861 23.3695C45.6643 23.2928 45.1585 23.1313 44.6888 22.8913C44.0824 22.5138 43.6372 21.9252 43.4387 21.239C43.184 20.4014 43.0662 19.5281 43.09 18.6529V8.14851H46.9348V18.6521L46.9332 18.6536ZM62.0953 11.2811V8.3469H77.8208V11.505L77.5643 11.7205L67.6575 20.0525H77.8208V23.7012H61.6427V20.5408L61.9016 20.3245L71.9277 11.9956H62.0984V11.2803M0 19.4875C0.753504 19.2663 1.41509 18.8069 1.8857 18.1782C2.35632 17.5495 2.61066 16.7853 2.61066 16C2.61066 15.2147 2.35632 14.4505 1.8857 13.8218C1.41509 13.1931 0.753504 12.7338 0 12.5125C0.53823 12.9208 0.974676 13.4481 1.27515 14.0531C1.57562 14.6581 1.73197 15.3245 1.73197 16C1.73197 16.6756 1.57562 17.3419 1.27515 17.947C0.974676 18.552 0.53823 19.0793 0 19.4875ZM1.28572 21.3367C2.0145 21.3368 2.73559 21.1877 3.40456 20.8985C4.07352 20.6094 4.67621 20.1864 5.1755 19.6555C5.6748 19.1246 6.06012 18.4971 6.30773 17.8117C6.55535 17.1263 6.66002 16.3974 6.61529 15.67C6.57056 14.9426 6.37739 14.2321 6.04766 13.5822C5.71794 12.9322 5.25863 12.3567 4.69806 11.891C4.13749 11.4253 3.48751 11.0793 2.78816 10.8743C2.08881 10.6693 1.3549 10.6097 0.631627 10.699C1.92332 10.8602 3.11166 11.4876 3.97325 12.4634C4.83484 13.4391 5.31034 14.696 5.31034 15.9977C5.31034 17.2994 4.83484 18.5563 3.97325 19.532C3.11166 20.5078 1.92332 21.1352 0.631627 21.2964C0.848634 21.3231 1.06707 21.3366 1.28572 21.3367ZM3.15504 24.4274C5.39072 24.4274 7.53484 23.5393 9.11571 21.9584C10.6966 20.3775 11.5847 18.2334 11.5847 15.9977C11.5847 13.762 10.6966 11.6179 9.11571 10.037C7.53484 8.45615 5.39072 7.56803 3.15504 7.56803C2.8099 7.56782 2.46511 7.58956 2.12274 7.63313C4.16104 7.88868 6.03588 8.87968 7.39511 10.42C8.75435 11.9603 9.50442 13.9438 9.50442 15.9981C9.50442 18.0524 8.75435 20.0359 7.39511 21.5762C6.03588 23.1165 4.16104 24.1075 2.12274 24.3631C2.46519 24.4056 2.80995 24.4276 3.15504 24.4274ZM15.1125 31.5C17.2244 31.494 19.3129 31.0565 21.2496 30.2142C23.1863 29.372 24.9305 28.1429 26.3751 26.6023C27.8197 25.0617 28.9342 23.2422 29.6503 21.2553C30.3663 19.2685 30.6688 17.1563 30.5391 15.0483C30.4094 12.9404 29.8503 10.8811 28.8961 8.99706C27.9419 7.11297 26.6128 5.44375 24.9902 4.09186C23.3677 2.73996 21.486 1.73391 19.4606 1.13544C17.4352 0.536975 15.3089 0.358725 13.2122 0.61163C16.9618 1.08109 20.4109 2.90363 22.9115 5.73682C25.4121 8.57001 26.792 12.2188 26.792 15.9977C26.792 19.7766 25.4121 23.4254 22.9115 26.2586C20.4109 29.0918 16.9618 30.9143 13.2122 31.3838C13.8427 31.4608 14.4773 31.4996 15.1125 31.5ZM5.85358 27.3313C7.40095 27.332 8.93205 27.0158 10.3526 26.4022C11.7731 25.7887 13.0529 24.8907 14.1132 23.7637C15.1735 22.6367 15.9918 21.3045 16.5176 19.8492C17.0435 18.394 17.2657 16.8464 17.1707 15.302C17.0758 13.7575 16.6655 12.2489 15.9653 10.869C15.2651 9.48915 14.2897 8.26728 13.0993 7.2787C11.9089 6.29012 10.5287 5.55577 9.04372 5.12089C7.55872 4.68602 6.00038 4.55984 4.46476 4.75013C7.20614 5.09289 9.72795 6.42503 11.5563 8.4962C13.3846 10.5674 14.3936 13.235 14.3936 15.9977C14.3936 18.7604 13.3846 21.428 11.5563 23.4992C9.72795 25.5704 7.20614 26.9025 4.46476 27.2453C4.9255 27.3024 5.38932 27.3311 5.85358 27.3313ZM9.6441 29.8516C13.3184 29.8516 16.8422 28.392 19.4403 25.7939C22.0384 23.1958 23.498 19.672 23.498 15.9977C23.498 12.3234 22.0384 8.79963 19.4403 6.20152C16.8422 3.60341 13.3184 2.1438 9.6441 2.1438C9.07648 2.14448 8.50942 2.17968 7.94607 2.2492C11.2967 2.6687 14.3788 4.29731 16.6133 6.82903C18.8478 9.36075 20.0809 12.6213 20.0809 15.9981C20.0809 19.3749 18.8478 22.6354 16.6133 25.1672C14.3788 27.6989 11.2967 29.3275 7.94607 29.747C8.50942 29.8164 9.07649 29.8513 9.6441 29.8516Z" fill="#01B4FF"/>
</g>
<defs>
<clipPath id="clip0_3_471">
<rect width="209.25" height="31" fill="white" transform="translate(0 0.5)"/>
</clipPath>
</defs>
</svg>
