<svg width="21" height="20" viewBox="0 0 21 20" fill="none" xmlns="http://www.w3.org/2000/svg">
<g clip-path="url(#clip0_336_9307)">
<path d="M0.972371 6.95653C0.666043 7.91622 0.500144 8.9386 0.500183 9.99989C0.500144 11.0612 0.666082 12.0837 0.97241 13.0434L10.5002 13.4782L20.028 13.0434C20.3343 12.0837 20.5002 11.0612 20.5002 9.99997C20.5002 8.93864 20.3343 7.91622 20.028 6.95649L10.5002 6.52173L0.972371 6.95653Z" fill="#F0F0F0"/>
<path d="M20.0277 6.95649L10.4999 6.52173L0.972063 6.95649C0.881282 7.24102 0.803118 7.53114 0.73761 7.82606H20.262C20.1966 7.5311 20.1184 7.24095 20.0277 6.95649Z" fill="#D80027"/>
<path d="M0.737549 12.1742C0.802979 12.4691 0.881143 12.7592 0.971924 13.0437L0.972861 13.0438L10.4997 13.4785L20.0274 13.0438C20.1182 12.7592 20.1964 12.4691 20.2618 12.1742H0.737549Z" fill="#D80027"/>
<path d="M10.5003 20.0006C14.9619 20.0006 18.7404 17.0786 20.0281 13.0441H0.972595C2.26029 17.0786 6.03888 20.0006 10.5003 20.0006Z" fill="#6DA544"/>
<path d="M10.5001 -0.000732421C6.03858 -0.000693359 2.26006 2.9213 0.97229 6.95579L20.0278 6.95583C18.7402 2.92126 14.9616 -0.000771484 10.5001 -0.000732421Z" fill="#338AF3"/>
<path d="M5.06959 4.13019C5.06959 3.19359 5.72784 2.41117 6.60686 2.21921C6.47178 2.18968 6.33158 2.17371 6.1876 2.17371C5.10705 2.17371 4.23108 3.04964 4.23108 4.13023C4.23108 5.21082 5.10698 6.08676 6.1876 6.08676C6.33158 6.08676 6.47174 6.07074 6.60686 6.04125C5.72787 5.84922 5.06959 5.06679 5.06959 4.13019Z" fill="#F0F0F0"/>
<path d="M7.76282 5.01868L7.89524 5.4263H8.32384L7.97712 5.67825L8.10954 6.08587L7.76282 5.83395L7.41602 6.08587L7.54848 5.67825L7.20172 5.4263H7.63032L7.76282 5.01868Z" fill="#F0F0F0"/>
<path d="M9.13139 5.01868L9.26385 5.4263H9.69244L9.34569 5.67825L9.47815 6.08587L9.13139 5.83395L8.78463 6.08587L8.91709 5.67825L8.57037 5.4263H8.99893L9.13139 5.01868Z" fill="#F0F0F0"/>
<path d="M10.499 5.01868L10.6314 5.4263H11.0601L10.7133 5.67825L10.8457 6.08587L10.499 5.83395L10.1522 6.08587L10.2847 5.67825L9.93793 5.4263H10.3666L10.499 5.01868Z" fill="#F0F0F0"/>
<path d="M11.8674 5.01868L11.9999 5.4263H12.4284L12.0817 5.67825L12.2142 6.08587L11.8674 5.83395L11.5206 6.08587L11.6531 5.67825L11.3063 5.4263H11.7349L11.8674 5.01868Z" fill="#F0F0F0"/>
<path d="M13.2352 5.01868L13.3677 5.4263H13.7963L13.4495 5.67825L13.582 6.08587L13.2352 5.83395L12.8885 6.08587L13.0209 5.67825L12.6742 5.4263H13.1027L13.2352 5.01868Z" fill="#F0F0F0"/>
<path d="M9.13139 3.59595L9.26385 4.00353H9.69244L9.34569 4.25552L9.47815 4.6631L9.13139 4.41118L8.78463 4.6631L8.91709 4.25552L8.57037 4.00353H8.99893L9.13139 3.59595Z" fill="#F0F0F0"/>
<path d="M10.499 3.59595L10.6314 4.00353H11.0601L10.7133 4.25552L10.8457 4.6631L10.499 4.41118L10.1522 4.6631L10.2847 4.25552L9.93793 4.00353H10.3666L10.499 3.59595Z" fill="#F0F0F0"/>
<path d="M11.8674 3.59595L11.9999 4.00353H12.4284L12.0817 4.25552L12.2142 4.6631L11.8674 4.41118L11.5206 4.6631L11.6531 4.25552L11.3063 4.00353H11.7349L11.8674 3.59595Z" fill="#F0F0F0"/>
<path d="M13.2352 3.59595L13.3677 4.00353H13.7963L13.4495 4.25552L13.582 4.6631L13.2352 4.41118L12.8885 4.6631L13.0209 4.25552L12.6742 4.00353H13.1027L13.2352 3.59595Z" fill="#F0F0F0"/>
<path d="M10.499 2.17334L10.6314 2.581H11.0601L10.7133 2.83291L10.8457 3.24057L10.499 2.98865L10.1522 3.24057L10.2847 2.83291L9.93793 2.581H10.3666L10.499 2.17334Z" fill="#F0F0F0"/>
<path d="M11.8674 2.17334L11.9999 2.581H12.4284L12.0817 2.83291L12.2142 3.24057L11.8674 2.98865L11.5206 3.24057L11.6531 2.83291L11.3063 2.581H11.7349L11.8674 2.17334Z" fill="#F0F0F0"/>
<path d="M13.2352 2.17334L13.3677 2.581H13.7963L13.4495 2.83291L13.582 3.24057L13.2352 2.98865L12.8885 3.24057L13.0209 2.83291L12.6742 2.581H13.1027L13.2352 2.17334Z" fill="#F0F0F0"/>
</g>
<defs>
<clipPath id="clip0_336_9307">
<rect width="20" height="20" fill="white" transform="translate(0.5)"/>
</clipPath>
</defs>
</svg>
